# xmcd
#
# Track frame offsets:
# 150
# 17200
# 35436
# 55615
# 73547
# 89299
# 107043
# 127334
# 146063
# 168964
# 191725
# 209994
# 226956
# 245252
# 262673
# 282476
# 301382
# 318995
# 336008
#
# Disc length: 4704 seconds
#
# Revision: 0
# Processed by: cddbd v1.5.1PL0 Copyright (c) Steve Scherf et al.
# Submitted via: Audion 3.0.2 (http://www.panic.com/audion/)
#
DISCID=19125e13
DTITLE=mixs - mix
DYEAR=1900
DGENRE=
TTITLE0=h
TTITLE1=h
TTITLE2=h
TTITLE3=h
TTITLE4=h
TTITLE5=h
TTITLE6=h
TTITLE7=h
TTITLE8=h
TTITLE9=h
TTITLE10=h
TTITLE11=h
TTITLE12=h
TTITLE13=h
TTITLE14=hh
TTITLE15=h
TTITLE16=h
TTITLE17=hh
TTITLE18=hhh
EXTD=
EXTT0=
EXTT1=
EXTT2=
EXTT3=
EXTT4=
EXTT5=
EXTT6=
EXTT7=
EXTT8=
EXTT9=
EXTT10=
EXTT11=
EXTT12=
EXTT13=
EXTT14=
EXTT15=
EXTT16=
EXTT17=
EXTT18=
PLAYORDER=
